{
    "accessors" : [
        {
            "bufferView" : 0, 
            "componentType" : 5121, 
            "count" : 36, 
            "max" : [
                23
            ], 
            "min" : [
                0
            ], 
            "type" : "SCALAR"
        }, 
        {
            "bufferView" : 1, 
            "componentType" : 5126, 
            "count" : 24, 
            "max" : [
                1.0, 
                1.0, 
                1.0
            ], 
            "min" : [
                -1.0, 
                -1.0, 
                -1.0
            ], 
            "type" : "VEC3"
        }, 
        {
            "bufferView" : 2, 
            "componentType" : 5126, 
            "count" : 24, 
            "max" : [
                1.0, 
                1.0, 
                1.0
            ], 
            "min" : [
                -1.0, 
                -1.0, 
                -1.0
            ], 
            "type" : "VEC3"
        }, 
        {
            "bufferView" : 3, 
            "componentType" : 5126, 
            "count" : 24, 
            "max" : [
                1.0, 
                0.0, 
                1.0, 
                1.0
            ], 
            "min" : [
                -1.0, 
                -1.4901161193847656e-08, 
                -1.0, 
                1.0
            ], 
            "type" : "VEC4"
        }, 
        {
            "bufferView" : 4, 
            "componentType" : 5126, 
            "count" : 24, 
            "max" : [
                1.0, 
                1.0
            ], 
            "min" : [
                0.0, 
                0.0
            ], 
            "type" : "VEC2"
        }, 
        {
            "bufferView" : 5, 
            "componentType" : 5121, 
            "count" : 60, 
            "max" : [
                39
            ], 
            "min" : [
                0
            ], 
            "type" : "SCALAR"
        }, 
        {
            "bufferView" : 6, 
            "componentType" : 5126, 
            "count" : 40, 
            "max" : [
                150.0, 
                0.25, 
                150.0
            ], 
            "min" : [
                -150.0, 
                -0.25, 
                -150.0
            ], 
            "type" : "VEC3"
        }, 
        {
            "bufferView" : 7, 
            "componentType" : 5126, 
            "count" : 40, 
            "max" : [
                1.0, 
                1.0, 
                1.0
            ], 
            "min" : [
                -1.0, 
                -1.0, 
                -1.0
            ], 
            "type" : "VEC3"
        }, 
        {
            "bufferView" : 8, 
            "componentType" : 5126, 
            "count" : 40, 
            "max" : [
                1.0, 
                0.0, 
                -0.0, 
                1.0
            ], 
            "min" : [
                0.0, 
                0.0, 
                -1.0, 
                1.0
            ], 
            "type" : "VEC4"
        }, 
        {
            "bufferView" : 9, 
            "componentType" : 5126, 
            "count" : 40, 
            "max" : [
                150.5, 
                150.5
            ], 
            "min" : [
                -149.5, 
                -149.5
            ], 
            "type" : "VEC2"
        }, 
        {
            "bufferView" : 10, 
            "componentType" : 5121, 
            "count" : 96, 
            "max" : [
                63
            ], 
            "min" : [
                0
            ], 
            "type" : "SCALAR"
        }, 
        {
            "bufferView" : 11, 
            "componentType" : 5126, 
            "count" : 64, 
            "max" : [
                150.0, 
                17.017457962036133, 
                150.0
            ], 
            "min" : [
                -150.0, 
                0.25, 
                -150.0
            ], 
            "type" : "VEC3"
        }, 
        {
            "bufferView" : 12, 
            "componentType" : 5126, 
            "count" : 64, 
            "max" : [
                1.0, 
                1.0, 
                1.0
            ], 
            "min" : [
                -1.0, 
                -1.0, 
                -1.0
            ], 
            "type" : "VEC3"
        }, 
        {
            "bufferView" : 13, 
            "componentType" : 5126, 
            "count" : 64, 
            "max" : [
                1.0, 
                0.0, 
                -0.0, 
                1.0
            ], 
            "min" : [
                0.0, 
                0.0, 
                -1.0, 
                1.0
            ], 
            "type" : "VEC4"
        }, 
        {
            "bufferView" : 14, 
            "componentType" : 5126, 
            "count" : 64, 
            "max" : [
                150.5, 
                150.5
            ], 
            "min" : [
                -149.5, 
                -149.5
            ], 
            "type" : "VEC2"
        }
    ], 
    "asset" : {
        "generator" : "Khronos Blender glTF 2.0 exporter", 
        "version" : "2.0"
    }, 
    "bufferViews" : [
        {
            "buffer" : 0, 
            "byteLength" : 36, 
            "byteOffset" : 0, 
            "target" : 34963
        }, 
        {
            "buffer" : 0, 
            "byteLength" : 288, 
            "byteOffset" : 36, 
            "target" : 34962
        }, 
        {
            "buffer" : 0, 
            "byteLength" : 288, 
            "byteOffset" : 324, 
            "target" : 34962
        }, 
        {
            "buffer" : 0, 
            "byteLength" : 384, 
            "byteOffset" : 612, 
            "target" : 34962
        }, 
        {
            "buffer" : 0, 
            "byteLength" : 192, 
            "byteOffset" : 996, 
            "target" : 34962
        }, 
        {
            "buffer" : 0, 
            "byteLength" : 60, 
            "byteOffset" : 1188, 
            "target" : 34963
        }, 
        {
            "buffer" : 0, 
            "byteLength" : 480, 
            "byteOffset" : 1248, 
            "target" : 34962
        }, 
        {
            "buffer" : 0, 
            "byteLength" : 480, 
            "byteOffset" : 1728, 
            "target" : 34962
        }, 
        {
            "buffer" : 0, 
            "byteLength" : 640, 
            "byteOffset" : 2208, 
            "target" : 34962
        }, 
        {
            "buffer" : 0, 
            "byteLength" : 320, 
            "byteOffset" : 2848, 
            "target" : 34962
        }, 
        {
            "buffer" : 0, 
            "byteLength" : 96, 
            "byteOffset" : 3168, 
            "target" : 34963
        }, 
        {
            "buffer" : 0, 
            "byteLength" : 768, 
            "byteOffset" : 3264, 
            "target" : 34962
        }, 
        {
            "buffer" : 0, 
            "byteLength" : 768, 
            "byteOffset" : 4032, 
            "target" : 34962
        }, 
        {
            "buffer" : 0, 
            "byteLength" : 1024, 
            "byteOffset" : 4800, 
            "target" : 34962
        }, 
        {
            "buffer" : 0, 
            "byteLength" : 512, 
            "byteOffset" : 5824, 
            "target" : 34962
        }
    ], 
    "buffers" : [
        {
            "byteLength" : 6336, 
            "uri" : "test_map.bin"
        }
    ], 
    "images" : [
        {
            "uri" : "grid-dragon.png"
        }, 
        {
            "uri" : "grid-purple.png"
        }, 
        {
            "uri" : "grid-blue.png"
        }
    ], 
    "materials" : [
        {
            "name" : "grid_dragon", 
            "pbrMetallicRoughness" : {
                "baseColorFactor" : [
                    0.6400000190734865, 
                    0.6400000190734865, 
                    0.6400000190734865, 
                    1.0
                ], 
                "baseColorTexture" : {
                    "index" : 0
                }, 
                "metallicFactor" : 0.0
            }
        }, 
        {
            "name" : "material_floor", 
            "pbrMetallicRoughness" : {
                "baseColorFactor" : [
                    0.6400000190734865, 
                    0.6400000190734865, 
                    0.6400000190734865, 
                    1.0
                ], 
                "baseColorTexture" : {
                    "index" : 1
                }, 
                "metallicFactor" : 0.0
            }
        }, 
        {
            "name" : "material_wall", 
            "pbrMetallicRoughness" : {
                "baseColorFactor" : [
                    0.6400000190734865, 
                    0.6400000190734865, 
                    0.6400000190734865, 
                    1.0
                ], 
                "baseColorTexture" : {
                    "index" : 2
                }, 
                "metallicFactor" : 0.0
            }
        }
    ], 
    "meshes" : [
        {
            "name" : "Cube.005", 
            "primitives" : [
                {
                    "attributes" : {
                        "NORMAL" : 2, 
                        "POSITION" : 1, 
                        "TANGENT" : 3, 
                        "TEXCOORD_0" : 4
                    }, 
                    "indices" : 0, 
                    "material" : 0
                }
            ]
        }, 
        {
            "name" : "Cube.001", 
            "primitives" : [
                {
                    "attributes" : {
                        "NORMAL" : 7, 
                        "POSITION" : 6, 
                        "TANGENT" : 8, 
                        "TEXCOORD_0" : 9
                    }, 
                    "indices" : 5, 
                    "material" : 1
                }
            ]
        }, 
        {
            "name" : "Cube.002", 
            "primitives" : [
                {
                    "attributes" : {
                        "NORMAL" : 12, 
                        "POSITION" : 11, 
                        "TANGENT" : 13, 
                        "TEXCOORD_0" : 14
                    }, 
                    "indices" : 10, 
                    "material" : 2
                }
            ]
        }
    ], 
    "nodes" : [
        {
            "mesh" : 1, 
            "name" : "Cube"
        }, 
        {
            "mesh" : 2, 
            "name" : "Cube.001"
        }, 
        {
            "mesh" : 0, 
            "name" : "Cube.003", 
            "scale" : [
                0.8497762680053711, 
                0.8497762680053711, 
                0.8497762680053711
            ], 
            "translation" : [
                8.872245788574219, 
                1.0984150171279907, 
                7.73473196602481e-09
            ]
        }, 
        {
            "name" : "Sun", 
            "rotation" : [
                0.27091071009635925, 
                0.0, 
                -0.0, 
                0.9626044631004333
            ]
        }
    ], 
    "samplers" : [
        {}
    ], 
    "scene" : 0, 
    "scenes" : [
        {
            "name" : "Scene", 
            "nodes" : [
                2, 
                3, 
                1, 
                0
            ]
        }
    ], 
    "textures" : [
        {
            "sampler" : 0, 
            "source" : 0
        }, 
        {
            "sampler" : 0, 
            "source" : 1
        }, 
        {
            "sampler" : 0, 
            "source" : 2
        }
    ]
}
